<?xml version="1.0" encoding="UTF-8" standalone="no"?>
<!-- Created with Inkscape (http://www.inkscape.org/) -->

<svg
   width="23.851347mm"
   height="11.406542mm"
   viewBox="0 0 23.851347 11.406542"
   version="1.1"
   id="svg496"
   inkscape:version="1.2 (dc2aeda, 2022-05-15)"
   sodipodi:docname="bw.svg"
   xmlns:inkscape="http://www.inkscape.org/namespaces/inkscape"
   xmlns:sodipodi="http://sodipodi.sourceforge.net/DTD/sodipodi-0.dtd"
   xmlns="http://www.w3.org/2000/svg"
   xmlns:svg="http://www.w3.org/2000/svg">
  <sodipodi:namedview
     id="namedview498"
     pagecolor="#ffffff"
     bordercolor="#000000"
     borderopacity="0.25"
     inkscape:showpageshadow="2"
     inkscape:pageopacity="0.0"
     inkscape:pagecheckerboard="0"
     inkscape:deskcolor="#d1d1d1"
     inkscape:document-units="mm"
     showgrid="false"
     inkscape:zoom="0.2102413"
     inkscape:cx="271.11704"
     inkscape:cy="-156.9625"
     inkscape:window-width="1309"
     inkscape:window-height="456"
     inkscape:window-x="0"
     inkscape:window-y="25"
     inkscape:window-maximized="0"
     inkscape:current-layer="layer1" />
  <defs
     id="defs493" />
  <g
     inkscape:label="Layer 1"
     inkscape:groupmode="layer"
     id="layer1"
     transform="translate(-32.120934,-190.61876)">
    <g
       inkscape:label="Layer 1"
       id="layer1-7"
       transform="matrix(0.63024225,0,0,0.63024225,-196.8435,53.790468)"
       style="fill:none;fill-opacity:1;stroke:#ffffff;stroke-opacity:1">
      <g
         id="g6868"
         transform="matrix(0.04778051,0,0,0.04778044,374.12697,215.79287)"
         style="fill:none;fill-opacity:1;stroke:#ffffff;stroke-width:1.74121;stroke-opacity:1">
        <g
           id="g6487"
           transform="matrix(3.4742306,0,0,3.4748163,547.91971,-68.411739)"
           style="fill:none;fill-opacity:1;stroke:#ffffff;stroke-width:0.501137;stroke-opacity:1">
          <path
             style="color:#000000;fill:#fbf8fb;fill-opacity:1;stroke:#ffffff;stroke-width:0.501137;stroke-opacity:1"
             d="m -173.52879,69.41273 c -6.8855,3.93564 -9.2797,12.71842 -5.34406,19.60391 3.93565,6.8855 12.71843,9.2797 19.60392,5.34405 16.73015,-12.00054 -0.90117,-32.05351 -14.25986,-24.94796 z m 13.8996,24.31768 c -6.54477,3.7409 -14.87248,1.47076 -18.61337,-5.07403 2.25395,-9.20158 8.98307,10.323 11.63844,-2.66133 3.5354,-17.28753 8.96138,-4.36282 6.97493,7.73536 z"
             id="circle3185"
             sodipodi:nodetypes="csccccsc" />
          <path
             id="path6837"
             style="fill:none;fill-opacity:1;stroke:#ffffff;stroke-width:1.98888;stroke-dasharray:none;stroke-opacity:1"
             d="m -114.46293,70.111665 c 6.61622,28.796782 -11.36469,57.504685 -40.16148,64.120925 -28.79676,6.61622 -57.50467,-11.3647 -64.12089,-40.161472 -6.61623,-28.796778 11.36466,-57.504687 40.16144,-64.120915 28.79679,-6.616223 57.50469,11.364678 64.12093,40.161462 z"
             sodipodi:nodetypes="sssss" />
          <path
             id="circle5677"
             style="fill:none;fill-opacity:1;stroke:#ffffff;stroke-width:1.98888;stroke-dasharray:none;stroke-opacity:1"
             d="m -134.87683,74.801872 c 4.02589,17.522499 -6.91528,34.990918 -24.43778,39.016818 -17.52249,4.02589 -34.99091,-6.91528 -39.0168,-24.437776 -4.0259,-17.522497 6.91526,-34.990918 24.43776,-39.016814 17.5225,-4.025893 34.99092,6.915271 39.01682,24.437772 z"
             sodipodi:nodetypes="sssss" />
          <path
             id="circle6342"
             style="fill:#fbf8fb;fill-opacity:1;stroke:#ffffff;stroke-width:0.411034;stroke-opacity:1"
             d="m -152.20946,52.110172 a 3.6238573,3.6238573 0 0 1 -3.62385,3.623858 3.6238573,3.6238573 0 0 1 -3.62386,-3.623858 3.6238573,3.6238573 0 0 1 3.62386,-3.623857 3.6238573,3.6238573 0 0 1 3.62385,3.623857 z" />
          <path
             id="circle6839"
             style="fill:#fbf8fb;fill-opacity:1;stroke:#ffffff;stroke-width:0.411034;stroke-opacity:1"
             d="m -215.50355,67.927467 a 3.6238573,3.6238573 0 0 1 -3.62386,3.623858 3.6238573,3.6238573 0 0 1 -3.62386,-3.623858 3.6238573,3.6238573 0 0 1 3.62386,-3.623857 3.6238573,3.6238573 0 0 1 3.62386,3.623857 z" />
          <path
             id="circle6841"
             style="fill:#fbf8fb;fill-opacity:1;stroke:#ffffff;stroke-width:0.411034;stroke-opacity:1"
             d="m -112.39902,100.27734 a 3.6238573,3.6238573 0 0 1 -3.62386,3.62386 3.6238573,3.6238573 0 0 1 -3.62386,-3.62386 3.6238573,3.6238573 0 0 1 3.62386,-3.623854 3.6238573,3.6238573 0 0 1 3.62386,3.623854 z" />
        </g>
      </g>
    </g>
    <g
       aria-label="BinaryWares"
       id="text709"
       style="font-weight:bold;font-size:6.31433px;font-family:Monaco;-inkscape-font-specification:'Monaco Bold';text-align:center;text-anchor:middle;fill:none;fill-opacity:1;stroke:#ffffff;stroke-width:0.451023;stroke-opacity:1"
       transform="matrix(0.26458333,0,0,0.26458333,-258.65228,39.855573)">
      <path
         d="m 1148.227,596.27411 v -4.78508 h 0.9342 q 0.8417,0 1.1253,0.12949 0.2868,0.12641 0.4286,0.37615 0.1418,0.24974 0.1418,0.57039 0,0.25282 -0.083,0.48097 -0.083,0.22507 -0.2467,0.41315 -0.1634,0.18499 -0.4748,0.35148 0.5704,0.22815 0.7708,0.56113 0.2035,0.33299 0.2035,0.66597 0,0.31756 -0.1727,0.61663 -0.1695,0.29907 -0.4779,0.45939 -0.3083,0.16033 -0.9866,0.16033 z m 0.6228,-2.62994 h 0.6536 q 0.3176,-0.13258 0.4625,-0.27749 0.148,-0.14799 0.2189,-0.32682 0.074,-0.1819 0.074,-0.39772 0,-0.33915 -0.2004,-0.50564 -0.1973,-0.1665 -0.7739,-0.1665 h -0.4347 z m 0,2.15205 h 0.5889 q 0.4933,0 0.7276,-0.23124 0.2374,-0.23432 0.2374,-0.56114 0,-0.24048 -0.1295,-0.44089 -0.1295,-0.20349 -0.4008,-0.32065 -0.2713,-0.12024 -0.851,-0.12024 h -0.1726 z"
         id="path966"
         style="fill:none;fill-opacity:1;stroke:#ffffff;stroke-opacity:1" />
      <path
         d="m 1152.9288,596.27411 v -2.96601 h -0.9558 v -0.47789 h 1.5293 v 2.96601 h 0.9588 v 0.47789 z m -0.096,-4.68642 q 0,-0.19424 0.1326,-0.28982 0.1326,-0.0956 0.2497,-0.0956 0.1203,0 0.2529,0.0956 0.1325,0.0956 0.1325,0.28982 0,0.19116 -0.1325,0.28674 -0.1326,0.0956 -0.2529,0.0956 -0.1171,0 -0.2497,-0.0956 -0.1326,-0.0956 -0.1326,-0.28674 z"
         id="path968"
         style="fill:none;fill-opacity:1;stroke:#ffffff;stroke-opacity:1" />
      <path
         d="m 1155.753,596.27411 v -3.4439 h 0.5735 v 0.75229 q 0.2466,-0.39773 0.595,-0.6228 0.3484,-0.22507 0.6968,-0.22507 0.3052,0 0.555,0.16341 0.2497,0.16032 0.3484,0.42239 0.1017,0.26207 0.1017,1.02978 v 1.9239 h -0.5734 v -1.99481 q 0,-0.49639 -0.049,-0.65363 -0.046,-0.16033 -0.1757,-0.26207 -0.1264,-0.10175 -0.2775,-0.10175 -0.3022,0 -0.6506,0.28674 -0.3453,0.28673 -0.5703,0.71838 v 2.00714 z"
         id="path970"
         style="fill:none;fill-opacity:1;stroke:#ffffff;stroke-opacity:1" />
      <path
         d="m 1161.8053,595.50023 q -0.2621,0.43165 -0.6321,0.65055 -0.3669,0.21891 -0.6752,0.21891 -0.4317,0 -0.777,-0.37307 -0.3422,-0.37306 -0.3422,-1.13152 0,-0.59813 0.2282,-1.06678 0.2281,-0.47172 0.6104,-0.74304 0.3823,-0.2744 0.9466,-0.2744 0.1634,0 0.4933,0.0339 0.049,0.006 0.148,0.0154 h 0.5765 v 2.43262 q 0,0.6228 0.1295,1.01128 h -0.5981 q -0.068,-0.28365 -0.1079,-0.77388 z m 0,-0.68138 v -1.47683 q -0.3053,-0.0802 -0.5673,-0.0802 -0.5304,0 -0.8849,0.41006 -0.3515,0.41007 -0.3515,1.11611 0,0.51181 0.1912,0.77388 0.1942,0.25898 0.4408,0.25898 0.2683,0 0.592,-0.27132 0.3238,-0.27131 0.5797,-0.73071 z"
         id="path972"
         style="fill:none;fill-opacity:1;stroke:#ffffff;stroke-opacity:1" />
      <path
         d="m 1163.6243,596.27411 v -3.4439 h 0.5735 v 0.75229 q 0.2682,-0.42547 0.6135,-0.63513 0.3484,-0.21274 0.7739,-0.21274 0.3114,0 0.6228,0.0956 v 1.24252 h -0.5519 v -0.78621 q -0.1449,-0.0247 -0.2281,-0.0247 -0.3207,0 -0.629,0.25282 -0.3083,0.25282 -0.6012,0.75846 v 2.00098 z"
         id="path974"
         style="fill:none;fill-opacity:1;stroke:#ffffff;stroke-opacity:1" />
      <path
         d="m 1168.3878,596.13537 -1.5909,-3.30516 h 0.6321 l 1.2671,2.58369 1.0606,-2.58369 h 0.5766 l -1.335,3.20033 q -0.4224,1.01436 -0.8047,1.34734 -0.3792,0.33299 -0.9836,0.33299 -0.262,0 -0.4686,-0.0462 v -0.50564 q 0.2374,0.074 0.4532,0.074 0.2775,0 0.4933,-0.10791 0.2159,-0.10791 0.3947,-0.38231 0.1788,-0.2744 0.2528,-0.47481 z"
         id="path976"
         style="fill:none;fill-opacity:1;stroke:#ffffff;stroke-opacity:1" />
      <path
         d="m 1171.0733,596.27411 -0.555,-4.78508 h 0.5673 l 0.3268,2.9136 0.043,0.48405 h 0.015 l 0.062,-0.48405 0.5025,-2.9136 h 0.5673 l 0.5735,3.03076 0.059,0.46247 h 0.015 l 0.037,-0.46556 0.3607,-3.02767 h 0.4871 l -0.5796,4.78508 h -0.5889 l -0.6166,-3.24349 -0.065,-0.48715 h -0.015 l -0.059,0.48715 -0.5549,3.24349 z"
         id="path978"
         style="fill:none;fill-opacity:1;stroke:#ffffff;stroke-opacity:1" />
      <path
         d="m 1176.9621,595.50023 q -0.2621,0.43165 -0.632,0.65055 -0.3669,0.21891 -0.6753,0.21891 -0.4316,0 -0.7769,-0.37307 -0.3422,-0.37306 -0.3422,-1.13152 0,-0.59813 0.2281,-1.06678 0.2282,-0.47172 0.6105,-0.74304 0.3823,-0.2744 0.9465,-0.2744 0.1634,0 0.4933,0.0339 0.049,0.006 0.148,0.0154 h 0.5766 v 2.43262 q 0,0.6228 0.1295,1.01128 h -0.5982 q -0.068,-0.28365 -0.1079,-0.77388 z m 0,-0.68138 v -1.47683 q -0.3052,-0.0802 -0.5673,-0.0802 -0.5303,0 -0.8849,0.41006 -0.3514,0.41007 -0.3514,1.11611 0,0.51181 0.1911,0.77388 0.1943,0.25898 0.4409,0.25898 0.2682,0 0.592,-0.27132 0.3237,-0.27131 0.5796,-0.73071 z"
         id="path980"
         style="fill:none;fill-opacity:1;stroke:#ffffff;stroke-opacity:1" />
      <path
         d="m 1178.7812,596.27411 v -3.4439 h 0.5735 v 0.75229 q 0.2682,-0.42547 0.6135,-0.63513 0.3484,-0.21274 0.7739,-0.21274 0.3114,0 0.6228,0.0956 v 1.24252 h -0.5519 v -0.78621 q -0.1449,-0.0247 -0.2282,-0.0247 -0.3206,0 -0.6289,0.25282 -0.3083,0.25282 -0.6012,0.75846 v 2.00098 z"
         id="path982"
         style="fill:none;fill-opacity:1;stroke:#ffffff;stroke-opacity:1" />
      <path
         d="m 1185.1418,596.04595 q -0.6876,0.32682 -1.3011,0.32682 -0.4656,0 -0.8325,-0.23124 -0.3669,-0.23124 -0.5889,-0.6598 -0.2189,-0.43164 -0.2189,-0.92186 0,-0.47173 0.2097,-0.90645 0.2096,-0.43473 0.5858,-0.67522 0.3761,-0.24357 0.8386,-0.24357 0.6135,0 0.9835,0.43781 0.3731,0.43781 0.3731,1.35043 v 0.12333 h -2.374 q 0,0.35764 0.1479,0.65363 0.1511,0.29598 0.3947,0.44397 0.2436,0.148 0.555,0.148 0.5549,0 1.2271,-0.36998 z m -2.2908,-1.82831 h 1.7173 v -0.0832 q 0,-0.42239 -0.2066,-0.67213 -0.2066,-0.24974 -0.5519,-0.24974 -0.3484,0 -0.6043,0.25591 -0.2528,0.25281 -0.3545,0.74921 z"
         id="path984"
         style="fill:none;fill-opacity:1;stroke:#ffffff;stroke-opacity:1" />
      <path
         d="m 1186.1068,596.0922 v -0.60738 q 0.3453,0.22507 0.7307,0.31756 0.3854,0.0894 0.6536,0.0894 0.4348,0 0.6259,-0.13875 0.1912,-0.14182 0.1912,-0.35148 0,-0.13874 -0.089,-0.2374 -0.089,-0.0987 -0.444,-0.24357 l -0.1973,-0.0802 -0.3978,-0.15725 q -0.6413,-0.24973 -0.8078,-0.46247 -0.1695,-0.20966 -0.1695,-0.51181 0,-0.42548 0.3268,-0.69988 0.3299,-0.2744 1.0668,-0.2744 0.5519,0 1.0452,0.16033 v 0.52105 q -0.5673,-0.20349 -1.0668,-0.20349 -0.3638,0 -0.5704,0.1295 -0.2035,0.12641 -0.2035,0.31756 0,0.18499 0.1788,0.29599 0.1758,0.11099 0.5735,0.2559 l 0.3885,0.14182 q 0.5334,0.19424 0.7492,0.4224 0.2158,0.22815 0.2158,0.57039 0,0.44705 -0.3453,0.73687 -0.3422,0.28674 -1.0976,0.28674 -0.6598,0 -1.3566,-0.27749 z"
         id="path986"
         style="fill:none;fill-opacity:1;stroke:#ffffff;stroke-opacity:1" />
    </g>
  </g>
</svg>
